<svg xmlns="http://www.w3.org/2000/svg" width="32" height="32" viewBox="0 0 32 32"><path fill-rule="evenodd" clip-rule="evenodd" d="M24.6255 25.9513C22.0128 28.2544 18.5825 29.6516 14.8258 29.6516C6.63775 29.6516 0 23.0139 0 14.8258C0 6.63775 6.63775 0 14.8258 0C23.0139 0 29.6516 6.63775 29.6516 14.8258C29.6516 18.5825 28.2544 22.0128 25.9513 24.6255L32 30.6742L30.6742 32L24.6255 25.9513ZM27.7766 14.8258C27.7766 21.9784 21.9784 27.7766 14.8258 27.7766C7.67328 27.7766 1.875 21.9784 1.875 14.8258C1.875 7.67328 7.67328 1.875 14.8258 1.875C21.9784 1.875 27.7766 7.67328 27.7766 14.8258Z"/></svg>