<svg xmlns="http://www.w3.org/2000/svg" width="40" height="40" viewBox="0 0 40 40" fill="black">
  <path d="M17.5 3.75H22.5V6.25H17.5V3.75ZM10 40H30C32.0676 40 33.75 38.3176 33.75 36.25V3.75C33.75 1.68242 32.0676 0 30 0H10C7.93242 0 6.25 1.68242 6.25 3.75V36.25C6.25 38.3176 7.93242 40 10 40ZM8.75 3.75C8.75 3.06133 9.31016 2.5 10 2.5H30C30.6898 2.5 31.25 3.06133 31.25 3.75V7.5H8.75V3.75ZM8.75 10H31.25V27.5H8.75V10ZM31.25 30V36.25C31.25 36.9387 30.6898 37.5 30 37.5H10C9.31016 37.5 8.75 36.9387 8.75 36.25V30H31.25Z"/>
</svg>