<svg xmlns="http://www.w3.org/2000/svg" width="40" height="40" viewBox="0 0 40 40" fill="black">
  <path d="M20 0C8.97266 0 0 8.97266 0 20C0 31.0273 8.97266 40 20 40C31.0273 40 40 31.0273 40 20C40 8.97266 31.0273 0 20 0ZM20 37.5C10.35 37.5 2.5 29.65 2.5 20C2.5 10.35 10.35 2.5 20 2.5C29.65 2.5 37.5 10.35 37.5 20C37.5 29.65 29.65 37.5 20 37.5ZM28.75 18.75H21.25V11.25C21.25 10.5602 20.6914 10 20 10C19.3086 10 18.75 10.5602 18.75 11.25V20C18.75 20.6898 19.3086 21.25 20 21.25H28.75C29.4414 21.25 30 20.6898 30 20C30 19.3102 29.4414 18.75 28.75 18.75Z"/>
</svg>