<svg xmlns="http://www.w3.org/2000/svg" width="40" height="40" viewBox="0 0 40 40" fill="black">
  <path d="M7.5 35C7.5 37.7578 9.74219 40 12.5 40C15.2578 40 17.5 37.7578 17.5 35C17.5 32.2422 15.2578 30 12.5 30C9.74219 30 7.5 32.2422 7.5 35ZM15 35C15 36.3789 13.8789 37.5 12.5 37.5C11.1211 37.5 10 36.3789 10 35C10 33.6211 11.1211 32.5 12.5 32.5C13.8789 32.5 15 33.6211 15 35ZM33.75 30C30.9922 30 28.75 32.2422 28.75 35C28.75 37.7578 30.9922 40 33.75 40C36.5078 40 38.75 37.7578 38.75 35C38.75 32.2422 36.5078 30 33.75 30ZM33.75 37.5C32.3711 37.5 31.25 36.3789 31.25 35C31.25 33.6211 32.3711 32.5 33.75 32.5C35.1289 32.5 36.25 33.6211 36.25 35C36.25 36.3789 35.1289 37.5 33.75 37.5ZM1.25 2.5H5.17383L8.76484 26.4352C8.85469 27.0477 9.38125 27.5 10 27.5H35C35.6262 27.5 36.1563 27.0363 36.2383 26.4148L38.7383 7.66484C38.7863 7.30742 38.6773 6.94766 38.4398 6.67656C38.2023 6.40547 37.8602 6.25 37.5 6.25H8.26367L7.48633 1.06484C7.39453 0.452344 6.86914 0 6.25 0H1.25C0.560156 0 0 0.560156 0 1.25C0 1.93984 0.560156 2.5 1.25 2.5ZM36.0727 8.75L33.9062 25H11.0762L8.63867 8.75H36.0723H36.0727Z"/>
</svg>