<svg xmlns="http://www.w3.org/2000/svg" width="44" height="44" viewBox="0 0 44 44" fill="#AEB6BE">
  <path d="M2.75 8.25C2.75 11.28 5.22 13.75 8.25 13.75C11.28 13.75 13.75 11.28 13.75 8.25C13.75 5.22 11.28 2.75 8.25 2.75C5.22 2.75 2.75 5.22 2.75 8.25ZM11 8.25C11 9.77 9.77 11 8.25 11C6.73 11 5.5 9.77 5.5 8.25C5.5 6.73 6.73 5.5 8.25 5.5C9.77 5.5 11 6.73 11 8.25ZM38.5 15.13H33C31.53 15.13 30.14 15.73 29.13 16.73C27.93 15.75 26.43 15.13 24.75 15.13H19.25C17.58 15.13 16.07 15.75 14.87 16.73C13.87 15.73 12.47 15.13 11 15.13H5.5C2.47 15.13 0 17.59 0 20.63V28.88H2.75V38.5H12.38V35.75H5.5V26.12H2.75V20.62C2.75 19.12 3.98 17.87 5.5 17.87H11C11.84 17.87 12.62 18.27 13.14 18.92C12.67 19.85 12.37 20.89 12.37 22V33H16.5V44H27.5V33H31.63V22C31.63 20.9 31.33 19.85 30.86 18.92C31.38 18.28 32.16 17.87 33 17.87H38.5C40.02 17.87 41.25 19.11 41.25 20.62V26.12H38.5V35.75H31.62V38.5H41.25V28.87H44V20.62C44 17.59 41.53 15.12 38.5 15.12V15.13ZM28.87 30.25H24.75V41.25H19.25V30.25H15.12V22C15.12 19.73 16.98 17.87 19.25 17.87H24.75C27.02 17.87 28.88 19.73 28.88 22V30.25H28.87ZM30.25 8.25C30.25 11.28 32.72 13.75 35.75 13.75C38.78 13.75 41.25 11.28 41.25 8.25C41.25 5.22 38.78 2.75 35.75 2.75C32.72 2.75 30.25 5.22 30.25 8.25V8.25ZM38.5 8.25C38.5 9.77 37.27 11 35.75 11C34.23 11 33 9.77 33 8.25C33 6.73 34.23 5.5 35.75 5.5C37.27 5.5 38.5 6.73 38.5 8.25ZM15.12 6.87C15.12 10.67 18.22 13.75 22 13.75C25.8 13.75 28.88 10.67 28.88 6.87C28.88 3.07 25.77 0 22 0C18.2 0 15.12 3.08 15.12 6.88V6.87ZM26.12 6.87C26.13 9.15 24.27 11 22 11C19.73 11 17.87 9.15 17.87 6.87C17.87 4.6 19.73 2.75 22 2.75C24.27 2.75 26.13 4.6 26.13 6.88L26.12 6.87Z"/>
</svg>