<svg xmlns="http://www.w3.org/2000/svg" width="40" height="40" viewBox="0 0 40 40" fill="#222222">
  <path d="M2.65068 20.7829C1.93893 21.4947 1.51189 22.4911 1.51189 23.4875C1.51189 24.484 1.93893 25.6228 2.65068 26.3345C3.36242 27.0463 4.21651 27.331 5.0706 27.4733C5.21295 28.3274 5.49765 29.1815 6.20939 29.8932C6.92114 30.605 7.77523 30.8897 8.62932 31.032C8.77167 31.8861 9.05637 32.7402 9.76811 33.452C10.4799 34.1637 11.3339 34.4484 12.188 34.5907C12.3304 35.4448 12.6151 36.2989 13.3268 37.0107C14.0386 37.7224 15.035 38.1495 16.0315 38.1495C16.8856 38.1495 17.882 37.8648 18.4514 37.2954L20.0172 38.8612C20.729 39.573 21.7254 40 22.7219 40C23.7183 40 24.7147 39.573 25.4265 38.8612C26.1382 38.1495 26.4229 37.2954 26.5653 36.4413C27.4194 36.2989 28.2735 36.0142 28.9852 35.3025C29.6969 34.5907 29.9816 33.7367 30.124 32.8826C30.9781 32.7402 31.8322 32.4555 32.5439 31.7438C33.2557 31.032 33.5404 30.1779 33.6827 29.3238C34.5368 29.1815 35.3909 28.8968 36.1026 28.1851C37.5261 26.7616 37.6685 24.484 36.3873 23.0605C40.9425 17.5089 40.8001 9.39502 35.6756 4.27046C33.1133 1.42349 29.6969 0 25.9959 0C24.003 0 22.1525 0.427046 20.4443 1.13879C15.1774 -0.996441 9.05637 0 5.0706 4.12811C0.657793 8.54093 -0.196299 15.3737 2.65068 20.7829ZM4.35886 23.6299C4.35886 23.3452 4.50121 23.0605 4.64356 22.9182L7.34819 20.2135C7.63288 19.9288 7.77523 19.9288 8.05993 19.9288C8.34463 19.9288 8.62932 20.0712 8.77167 20.2135C8.91402 20.3559 9.05637 20.6406 9.05637 20.9253C9.05637 21.21 8.91402 21.4947 8.77167 21.637L6.20939 24.3416C5.78235 24.7687 5.0706 24.7687 4.64356 24.3416C4.50121 24.1993 4.35886 23.9146 4.35886 23.6299ZM8.20228 26.3345L10.9069 23.6299C11.0493 23.4875 11.334 23.3452 11.6186 23.3452C11.9033 23.3452 12.188 23.4875 12.3304 23.6299C12.7574 24.0569 12.7574 24.7687 12.3304 25.1957L9.62576 27.9004C9.19872 28.3274 8.48698 28.3274 8.05993 27.9004C7.77523 27.4733 7.77523 26.7616 8.20228 26.3345ZM11.4763 30.605C11.4763 30.3203 11.6186 30.0356 11.761 29.8932L14.4656 27.1886C14.608 27.0463 14.8927 26.9039 15.1774 26.9039C15.4621 26.9039 15.7468 27.0463 15.8891 27.1886C16.0315 27.331 16.1738 27.6157 16.1738 27.9004C16.1738 28.1851 16.0315 28.4698 15.8891 28.6121L13.3268 31.4591C12.8998 31.8861 12.188 31.8861 11.761 31.4591C11.6186 31.1744 11.4763 30.8897 11.4763 30.605ZM15.3197 34.8754C15.1774 34.7331 15.035 34.4484 15.035 34.1637C15.035 33.879 15.1774 33.5943 15.3197 33.452L18.0243 30.7473C18.1667 30.605 18.4514 30.4626 18.7361 30.4626C19.0208 30.4626 19.3055 30.605 19.4478 30.7473C19.8749 31.1744 19.8749 31.8861 19.4478 32.3132L17.5973 34.1637L16.8856 34.8754C16.4585 35.3025 15.7468 35.3025 15.3197 34.8754V34.8754ZM23.5759 36.726C23.1489 37.153 22.4372 37.153 22.0101 36.726L20.4443 35.1601L21.2984 34.3061C21.4407 34.1637 21.7254 33.879 21.8678 33.5943L23.4336 35.1601C23.5759 35.3025 23.7183 35.5872 23.7183 35.8719C23.8606 36.1566 23.8606 36.4413 23.5759 36.726ZM33.8251 6.121C37.6685 9.96441 37.9532 16.3701 34.5368 20.7829L28.5581 14.5196C29.1275 14.2349 29.8393 13.8078 30.2663 13.2384C30.8357 12.669 30.8357 11.8149 30.2663 11.2456C29.6969 10.6762 28.8428 10.6762 28.2735 11.2456C24.7147 14.8043 17.7396 10.9609 17.7396 10.9609C17.1703 10.6762 16.4585 10.8185 16.0315 11.2456C14.0386 13.2384 12.188 13.5231 10.7646 13.3808L18.0243 6.121C20.3019 3.98577 23.0065 2.84698 25.9959 2.84698C28.9852 2.84698 31.6898 3.98577 33.8251 6.121V6.121ZM7.06349 6.121C9.76811 3.41637 13.4692 2.41993 17.1702 3.13167C16.8856 3.41637 16.4585 3.70107 16.1738 4.12811L7.34819 12.9537C7.06349 13.2384 6.92114 13.6655 6.92114 14.0925C6.92114 14.5196 7.20584 14.9466 7.49053 15.089C9.19872 16.2278 13.3268 17.2242 17.3126 13.8078C18.8784 14.5196 22.2948 15.8007 25.5688 15.3737L34.2521 24.484C34.6791 24.911 34.6791 25.6228 34.2521 26.0498C33.8251 26.4769 33.1133 26.4769 32.6863 26.0498L29.5546 22.9182C28.9852 22.3488 28.1311 22.3488 27.5617 22.9182C26.9923 23.4875 26.9923 24.3416 27.5617 24.911L30.6934 28.0427C30.8357 28.1851 30.9781 28.4698 30.9781 28.7544C30.9781 29.0391 30.8357 29.3238 30.6934 29.4662C30.2663 29.8932 29.5546 29.8932 29.1275 29.4662L25.9959 26.3345C25.4265 25.7651 24.5724 25.7651 24.003 26.3345C23.4336 26.9039 23.4336 27.758 24.003 28.3274L27.1347 31.4591C27.5617 31.8861 27.5617 32.5979 27.1347 33.0249C26.7076 33.452 25.9959 33.452 25.5688 33.0249L22.1525 29.6085C22.0101 29.3238 21.7254 28.8968 21.4407 28.6121C20.729 27.9004 19.8749 27.6157 19.0208 27.4733C18.8784 26.6192 18.5937 25.6228 17.882 25.0534C17.1702 24.3416 16.3162 24.0569 15.4621 23.9146C15.3197 23.0605 15.035 22.2064 14.3233 21.4947C13.6115 20.7829 12.7574 20.4982 11.9033 20.3559C11.761 19.5018 11.4763 18.5053 10.7646 17.9359C9.34107 16.5125 6.63644 16.5125 5.21295 17.9359L4.78591 18.363C2.93537 14.5196 3.78947 9.39502 7.06349 6.121V6.121Z"/>
</svg>