<svg xmlns="http://www.w3.org/2000/svg" width="40" height="40" viewBox="0 0 40 40" fill="black">
  <path d="M38.3072 4.43867C37.9049 4.36133 37.4896 4.49336 37.1986 4.78359L33.7494 8.23281L31.7674 6.25L35.2166 2.80078C35.5056 2.51172 35.6361 2.09766 35.5611 1.69258C35.4869 1.28867 35.2213 0.946484 34.8463 0.778516C33.7013 0.263281 32.492 0 31.2498 0C26.4256 0 22.4998 3.92578 22.4998 8.75C22.4998 9.18633 22.5349 9.62891 22.606 10.0762L18.274 14.0059L14.531 10.2637L14.5193 7.96016C14.5185 7.63008 14.3873 7.31484 14.1537 7.08242L8.84978 1.78047C8.3615 1.29219 7.57087 1.29219 7.0822 1.78047L1.78025 7.08203C1.29197 7.57109 1.29197 8.36133 1.78025 8.85L7.08181 14.1539C7.31619 14.3875 7.62986 14.5187 7.95994 14.5199L10.2635 14.5316L13.7974 18.0652L1.65994 29.0742C1.40603 29.3039 1.25837 29.6273 1.24978 29.9699C1.24119 30.3125 1.37478 30.6426 1.61619 30.884L9.11619 38.384C9.34978 38.6184 9.66853 38.75 9.99978 38.75C10.0099 38.75 10.0209 38.75 10.0299 38.75C10.3709 38.7414 10.6947 38.5938 10.9244 38.3398L19.556 28.8242L27.3998 36.668C28.6759 37.9438 30.3549 38.5836 32.0326 38.582C33.7111 38.582 35.3896 37.9438 36.6674 36.668C39.222 34.1113 39.222 29.9539 36.6674 27.4L28.372 19.1055L29.9244 17.3937C35.3134 18.2453 39.9998 14.0102 39.9998 8.75C39.9998 7.50781 39.7373 6.29766 39.2209 5.15391C39.0521 4.77891 38.7111 4.51133 38.3068 4.43906L38.3072 4.43867ZM11.6677 12.3996C11.4334 12.1664 11.1197 12.0352 10.7896 12.0336L8.48611 12.0227L4.43142 7.96641L7.96658 4.43125L12.0224 8.48594L12.0334 10.7898C12.0349 11.1199 12.1662 11.4336 12.3998 11.6676L16.4193 15.6871L15.651 16.3832L11.6677 12.4V12.3996ZM34.8994 29.168C36.4795 30.7477 36.4795 33.3188 34.8994 34.9C33.3158 36.4801 30.7455 36.4789 29.167 34.9L21.2365 26.9703L26.6888 20.9586L34.8998 29.168H34.8994ZM29.7693 14.8145C29.324 14.7082 28.8552 14.8484 28.5474 15.1895L25.7885 18.2309C25.7767 18.241 25.7631 18.2434 25.7533 18.2543C25.7357 18.2723 25.7306 18.2945 25.7142 18.3129L9.95564 35.6879L4.31111 30.0434L16.4107 19.0684C16.4408 19.0434 16.4771 19.0332 16.5056 19.0059C16.5232 18.9883 16.5283 18.966 16.5447 18.9484L24.8103 11.4504C25.1494 11.143 25.2947 10.6742 25.1853 10.2277C25.0623 9.72656 24.9998 9.22891 24.9998 8.75C24.9998 5.30391 27.8037 2.5 31.2498 2.5C31.4834 2.5 31.7135 2.51367 31.9435 2.53906L29.1162 5.36641C28.6271 5.85469 28.6271 6.64492 29.1162 7.13359L32.8662 10.8836C33.3545 11.3727 34.1447 11.3727 34.6334 10.8836L37.4615 8.05625C37.4861 8.28672 37.4998 8.51641 37.4998 8.75C37.4998 12.675 33.8935 15.8227 29.7693 14.8148V14.8145Z"/>
</svg>