<svg xmlns="http://www.w3.org/2000/svg" width="40" height="40" viewBox="0 0 40 40" fill="black">
  <g clip-path="url(#clip0)">
    <path d="M35 40C35.6898 40 36.25 39.4399 36.25 38.75V2.5C36.25 2.08516 36.0438 1.69766 35.7012 1.46484C35.3586 1.23203 34.9227 1.18516 34.5363 1.33867L28.8977 3.59492L25.6945 1.46016C25.3227 1.21016 24.8437 1.18125 24.4426 1.38203L20 3.60273L15.5602 1.38281C15.1586 1.18242 14.6789 1.21094 14.3074 1.46016L11.1043 3.59492L5.46484 1.33867C5.07891 1.18633 4.64258 1.23242 4.29883 1.46484C3.95508 1.69727 3.75 2.08516 3.75 2.5V38.75C3.75 39.4399 4.31016 40 5 40H35ZM6.25 4.34609L10.7852 6.16133C11.1688 6.31367 11.6016 6.26875 11.9426 6.04024L15.0887 3.94258L19.4387 6.11836C19.7902 6.29492 20.2051 6.29492 20.5574 6.11836L24.909 3.94258L28.0551 6.04024C28.3965 6.26875 28.8305 6.31367 29.2129 6.16133L33.75 4.34609V37.5H6.25V4.34609ZM28.75 12.5H21.25C20.5602 12.5 20 13.0602 20 13.75C20 14.4398 20.5602 15 21.25 15H28.75C29.4398 15 30 14.4398 30 13.75C30 13.0602 29.4398 12.5 28.75 12.5ZM15.3664 10.3664L12.5 13.2324L12.1336 12.8664C11.6453 12.3773 10.8551 12.3773 10.3664 12.8664C9.87773 13.3555 9.87734 14.1449 10.3664 14.6336L11.6164 15.8836C11.8602 16.1273 12.1801 16.25 12.5 16.25C12.8199 16.25 13.1398 16.1273 13.3836 15.8836L17.1336 12.1336C17.6227 11.6453 17.6227 10.8551 17.1336 10.3664C16.6445 9.87774 15.8551 9.87735 15.3664 10.3664ZM28.75 21.25H21.25C20.5602 21.25 20 21.8102 20 22.5C20 23.1899 20.5602 23.75 21.25 23.75H28.75C29.4398 23.75 30 23.1899 30 22.5C30 21.8102 29.4398 21.25 28.75 21.25ZM15.3664 19.1164L12.5 21.9824L12.1336 21.6164C11.6453 21.1274 10.8551 21.1274 10.3664 21.6164C9.87773 22.1055 9.87734 22.8949 10.3664 23.3836L11.6164 24.6336C11.8602 24.8774 12.1801 25 12.5 25C12.8199 25 13.1398 24.8774 13.3836 24.6336L17.1336 20.8836C17.6227 20.3953 17.6227 19.6051 17.1336 19.1164C16.6445 18.6277 15.8551 18.6274 15.3664 19.1164ZM28.75 30H21.25C20.5602 30 20 30.5602 20 31.25C20 31.9399 20.5602 32.5 21.25 32.5H28.75C29.4398 32.5 30 31.9399 30 31.25C30 30.5602 29.4398 30 28.75 30ZM13.75 30H11.25C10.5602 30 10 30.5602 10 31.25C10 31.9399 10.5602 32.5 11.25 32.5H13.75C14.4398 32.5 15 31.9399 15 31.25C15 30.5602 14.4398 30 13.75 30Z"/>
  </g>
  <defs>
    <clipPath id="clip0">
      <rect width="40" height="40" fill="white"/>
    </clipPath>
  </defs>
</svg>