<svg xmlns="http://www.w3.org/2000/svg" width="40" height="40" viewBox="0 0 40 40" fill="black">
  <g clip-path="url(#clip0)">
    <path d="M39.9227 5.86484C39.8961 5.78359 39.8602 5.71133 39.8172 5.6375C39.7938 5.59609 39.7875 5.54883 39.7586 5.51016C39.7391 5.48359 39.7102 5.47109 39.6883 5.44609C39.6324 5.38125 39.5699 5.32891 39.5008 5.27617C39.4383 5.22734 39.3789 5.18125 39.3086 5.14609C39.2398 5.11094 39.168 5.08984 39.0926 5.06875C39.0086 5.04531 38.9273 5.02383 38.8398 5.01797C38.8086 5.01641 38.7824 5 38.75 5H1.25C1.21758 5 1.19141 5.01641 1.16016 5.01875C1.07266 5.025 0.991406 5.04492 0.907422 5.06875C0.832422 5.09141 0.760156 5.11172 0.691406 5.14609C0.621094 5.18242 0.561328 5.22891 0.498828 5.27617C0.43125 5.32891 0.367578 5.38164 0.311328 5.44609C0.289844 5.47109 0.261328 5.48359 0.241016 5.51016C0.2125 5.55 0.205859 5.59609 0.182422 5.6375C0.139453 5.71172 0.105078 5.78359 0.0769531 5.86484C0.0496094 5.94766 0.0363281 6.02891 0.0273437 6.11367C0.0226562 6.16172 0 6.20156 0 6.25039V33.7504C0 34.4418 0.560156 35.0004 1.25 35.0004H38.75C39.4398 35.0004 40 34.4418 40 33.7504V6.25C40 6.20117 39.9773 6.16133 39.9727 6.11328C39.9637 6.02891 39.95 5.94766 39.9227 5.86484ZM34.9312 7.5L20 18.45L5.06875 7.5H34.9312ZM2.5 32.5V8.71758L19.2617 21.0086C19.4805 21.1699 19.7398 21.25 20 21.25C20.2602 21.25 20.5195 21.1699 20.7383 21.0086L37.5 8.71758V32.5H2.5Z"/>
  </g>
  <defs>
    <clipPath id="clip0">
      <rect width="40" height="40" fill="white"/>
    </clipPath>
  </defs>
</svg>