<svg xmlns="http://www.w3.org/2000/svg" width="44" height="44" viewBox="0 0 44 44" fill="#CECFD0">
  <path d="M9.63 20.63C4.25 20.63 0 24.88 0 30.24C0 35.6 4.26 39.87 9.63 39.87C14.99 39.87 19.25 35.6 19.25 30.24C19.25 24.88 14.99 20.61 9.62 20.61L9.63 20.63ZM9.63 37.13C5.77 37.13 2.75 34.1 2.75 30.25C2.75 26.4 5.78 23.37 9.63 23.37C13.47 23.37 16.5 26.4 16.5 30.25C16.5 34.1 13.47 37.13 9.62 37.13H9.63ZM38.5 26.26V24.76C38.5 22.41 36.7 20.62 34.37 20.62H33V16.5C33 15.68 33.55 15.12 34.38 15.12H35.75C36.58 15.12 37.13 14.58 37.13 13.75C37.13 12.93 36.58 12.37 35.75 12.37H34.37C32.04 12.37 30.25 14.17 30.25 16.5V20.63H28.45L23.26 5.1C23.11 4.54 22.56 4.13 22.01 4.13H5.5C4.67 4.13 4.12 4.67 4.12 5.5C4.12 6.33 4.67 6.88 5.5 6.88H8.25V15.26C6.6 15.4 5.09 15.81 3.58 16.5C2.88 16.77 2.61 17.6 2.88 18.3C3.16 18.98 3.98 19.25 4.68 18.98C6.18 18.28 7.84 17.88 9.63 17.88C16.5 17.88 22 23.38 22 30.25C22 31.49 21.86 32.73 21.45 33.95C21.31 34.37 21.45 34.79 21.59 35.2C21.85 35.6 22.26 35.75 22.69 35.75H30.79C31.89 38.23 34.23 39.88 37.11 39.88C40.97 39.88 43.99 36.85 43.99 33C43.99 29.7 41.65 26.95 38.49 26.26H38.5ZM11 15.26V6.88H21.04L25.58 20.63H21.3C18.84 17.6 15.12 15.53 11 15.26V15.26ZM24.48 33C24.61 32.04 24.75 31.2 24.75 30.25C24.75 27.77 24.2 25.45 23.1 23.37H34.38C35.2 23.37 35.75 23.92 35.75 24.75V26.25C32.59 26.95 30.25 29.7 30.25 33H24.48ZM37.12 37.13C34.8 37.13 33 35.33 33 33C33 30.66 34.8 28.87 37.13 28.87C39.46 28.87 41.25 30.67 41.25 33C41.25 35.34 39.45 37.13 37.12 37.13V37.13Z"/>
</svg>