<svg xmlns="http://www.w3.org/2000/svg" width="60" height="60" viewBox="0 0 60 60" fill="#AEB6BE">
  <path d="M46.9 12.5C46.48 12.34 46 12.43 45.7 12.75L12.74 45.7C12.42 46 12.34 46.48 12.5 46.9C12.68 47.3 13.08 47.57 13.53 47.57H46.47C47.07 47.57 47.57 47.07 47.57 46.47V13.53C47.57 13.08 47.3 12.68 46.89 12.51L46.9 12.5ZM16.17 45.38L45.37 16.18V21.58H42.8C42.2 21.58 41.7 22.06 41.7 22.68C41.7 23.28 42.2 23.78 42.8 23.78H45.37V26.34H44.2C43.6 26.34 43.1 26.84 43.1 27.44C43.1 28.04 43.6 28.54 44.2 28.54H45.37V31.12H42.8C42.2 31.12 41.7 31.62 41.7 32.22C41.7 32.84 42.2 33.32 42.8 33.32H45.37V35.9H44.2C43.6 35.9 43.1 36.4 43.1 37C43.1 37.6 43.6 38.1 44.2 38.1H45.37V40.68H42.8C42.2 40.68 41.7 41.18 41.7 41.78C41.7 42.38 42.2 42.88 42.8 42.88H45.37V45.4H16.17V45.38ZM39.44 29.63C39.04 29.46 38.56 29.55 38.24 29.87L29.87 38.24C29.55 38.56 29.47 39.04 29.63 39.44C29.8 39.84 30.2 40.12 30.65 40.12H39.02C39.62 40.12 40.12 39.62 40.12 39.02V30.65C40.12 30.2 39.85 29.8 39.44 29.63ZM37.92 37.93H33.3L37.92 33.3V37.92V37.93ZM14.28 36.78C14.38 36.78 14.51 36.78 14.62 36.73L19.32 35.23C19.5 35.18 19.65 35.09 19.78 34.97L33.75 21C33.79 20.96 33.85 20.95 33.87 20.9C33.91 20.88 33.92 20.83 33.95 20.8L36.48 18.26C36.68 18.06 36.8 17.76 36.8 17.48C36.8 17.18 36.7 16.91 36.48 16.7L33.26 13.5C32.83 13.06 32.14 13.06 31.71 13.5L15 30.2C14.88 30.32 14.78 30.47 14.73 30.64L13.23 35.34C13.11 35.74 13.21 36.17 13.51 36.46C13.71 36.66 14.01 36.78 14.29 36.78H14.28ZM32.48 15.82L34.15 17.48L33.07 18.56L31.41 16.9L32.51 15.82H32.48ZM16.75 31.56L29.85 18.46L31.52 20.11L18.42 33.23L15.97 34L16.75 31.56V31.56Z"/>
</svg>