<svg xmlns="http://www.w3.org/2000/svg" width="60" height="60" viewBox="0 0 60 60" fill="#AEB6BE">
  <path d="M51.56 26.36C50.8 25.38 49.53 24.88 48.26 25.16L46.36 15.58C46.32 15.36 46.2 15.16 46.04 15.01L43.02 12.34C42.72 12.09 42.32 12.02 41.96 12.16C41.59 12.31 41.36 12.64 41.32 13.03L41.1 15.76L26.06 23.96C25.73 24.13 25.52 24.46 25.52 24.86V29.16H23.12C22.6 29.16 22.16 29.56 22.09 30.06L21.49 34.26H12.51C11.99 34.26 11.56 34.64 11.49 35.16L10.99 38.98C8.81001 39.28 7.14001 41.15 7.14001 43.4C7.14001 45.87 9.14002 47.88 11.64 47.88H35.9C38.38 47.88 40.4 45.88 40.4 43.38C40.4 40.92 38.38 38.9 35.9 38.9H33.2L32 30.05C31.94 29.55 31.5 29.15 31 29.15H30.76L31.09 27.18L42.26 20.08L47.54 32.58L47.1 33.23C46.96 33.46 46.9 33.73 46.95 34C47 34.27 47.15 34.5 47.38 34.65C47.83 34.97 48.48 34.85 48.8 34.39L51.66 30.21C52.46 29.04 52.43 27.49 51.56 26.35V26.36ZM38.2 43.4C38.2 44.66 37.18 45.68 35.92 45.68H11.64C10.37 45.68 9.34001 44.66 9.34001 43.38C9.34001 42.13 10.37 41.1 11.64 41.1H35.92C37.18 41.1 38.22 42.13 38.22 43.4H38.2ZM13.06 38.9L13.41 36.3H22.41C22.93 36.3 23.36 35.92 23.43 35.42L23.89 32.04V34.54C23.89 36.31 25.09 37.84 26.83 38.24L29.56 38.9H13.06V38.9ZM30.91 37.12L27.31 36.26C26.51 36.06 25.94 35.36 25.94 34.53V31.2H30.14L30.92 37.12H30.91ZM29.63 25.7C29.39 25.86 29.23 26.1 29.17 26.4L28.71 29.16H27.58V25.46L41.48 17.86L41.58 18.1L29.63 25.7V25.7ZM43.75 18.2L43.13 16.26L43.21 15.23L44.43 16.31L45.99 24.15L43.75 18.22V18.2ZM49.98 29.06L48.88 30.66L47.4 27.59L48.56 27.19C49.06 27.01 49.62 27.19 49.94 27.59C50.26 28.03 50.28 28.61 49.97 29.05L49.98 29.06Z"/>
</svg>