<svg xmlns="http://www.w3.org/2000/svg" width="60" height="60" viewBox="0 0 60 60" fill="#AEB6BE">
  <path d="M13 46.43H47C47.62 46.43 48.1 45.93 48.1 45.33V37.66C48.1 37.06 47.62 36.56 47 36.56H38.37V31.1H47C47.62 31.1 48.1 30.6 48.1 30V22.33C48.1 21.73 47.62 21.23 47 21.23H38.37V14.67C38.37 14.07 37.87 13.57 37.27 13.57H13C12.4 13.57 11.9 14.07 11.9 14.67V45.33C11.9 45.93 12.4 46.43 13 46.43ZM32.33 44.23H20.66V38.77H32.33V44.23ZM26.23 36.56V31.1H36.17V36.56H26.23V36.56ZM20.66 28.9V23.43H32.33V28.9H20.66V28.9ZM45.91 38.76V44.23H34.54V38.76H45.9H45.91ZM45.91 23.43V28.9H34.54V23.43H45.9H45.91ZM26.24 15.77H36.18V21.23H26.23V15.77H26.24ZM14.1 15.77H24.03V21.23H14.1V15.77V15.77ZM14.1 23.43H18.46V28.9H14.1V23.43V23.43ZM14.1 31.1H24.03V36.56H14.1V31.1V31.1ZM14.1 38.76H18.46V44.23H14.1V38.76V38.76Z"/>
</svg>