<svg xmlns="http://www.w3.org/2000/svg" width="60" height="60" viewBox="0 0 60 60" fill="#AEB6BE">
  <path d="M33.84 47.4C33.82 47.4 33.79 47.4 33.77 47.4C33.75 47.4 33.72 47.4 33.7 47.4H13.5C12.88 47.4 12.4 46.9 12.4 46.3V43.6C12.4 42.98 12.88 42.5 13.5 42.5C14.1 42.5 14.6 42.98 14.6 43.6V45.2H32.74V38.03C32.74 37.33 33.46 36.8 34.11 36.96C34.14 36.96 34.16 36.96 34.18 36.96H45.1V23.8H29.9V28.97C29.9 29.57 29.4 30.07 28.8 30.07C28.18 30.07 27.7 29.57 27.7 28.97V27.07H23.28C22.68 27.07 22.18 26.59 22.18 25.97C22.18 25.37 22.68 24.87 23.28 24.87H27.68V22.71C27.68 22.11 28.18 21.61 28.78 21.61H45.11V14.81H29.9V17.91C29.9 18.51 29.4 19.01 28.8 19.01C28.18 19.01 27.7 18.51 27.7 17.91V14.81H14.6V24.89H17.95C18.55 24.89 19.05 25.39 19.05 25.99C19.05 26.59 18.55 27.09 17.95 27.09H14.6V36.99H27.7V34.24C27.7 33.64 28.18 33.14 28.8 33.14C29.4 33.14 29.9 33.64 29.9 34.24V38.07C29.9 38.7 29.35 39.21 28.7 39.17C28.66 39.17 28.6 39.17 28.56 39.17H13.5C12.88 39.17 12.4 38.67 12.4 38.07V13.7C12.4 13.1 12.88 12.6 13.5 12.6H46.2C46.82 12.6 47.3 13.1 47.3 13.7V38.06C47.3 38.66 46.82 39.16 46.2 39.16H34.95V46.3C34.95 46.9 34.45 47.4 33.85 47.4H33.84Z"/>
</svg>