<svg xmlns="http://www.w3.org/2000/svg" width="60" height="60" viewBox="0 0 60 60" fill="#AEB6BE">
  <path d="M42.76 35.83L40.73 35C40.68 34.97 40.63 34.96 40.57 34.94C40.49 34.86 40.4 34.78 40.27 34.72L36.9 32.95C36.57 32.78 36.17 32.78 35.85 32.97C35.52 33.15 35.31 33.49 35.29 33.87L34.83 41.8H25.15L24.7 33.86C24.7 33.49 24.48 33.16 24.16 32.96C23.83 32.78 23.43 32.78 23.11 32.96L19.73 34.72C19.63 34.78 19.53 34.84 19.46 34.92C19.36 34.92 19.26 34.96 19.16 35L17.23 35.84C17.07 35.9 16.91 35.94 16.75 35.99C16.3 36.12 15.75 36.29 15.27 36.77C14.71 37.37 14.34 38.17 14.22 39.05L13.1 47.53C13.06 47.83 13.15 48.16 13.36 48.4C13.56 48.65 13.86 48.78 14.19 48.78H20C20.06 48.78 20.1 48.78 20.17 48.78C20.22 48.78 20.27 48.78 20.34 48.78H39.67C39.71 48.78 39.74 48.78 39.77 48.78C39.82 48.78 39.87 48.78 39.9 48.78H45.83C46.15 48.78 46.45 48.64 46.66 48.41C46.86 48.18 46.96 47.86 46.93 47.55L45.8 39.07C45.5 36.97 43.65 36.2 42.76 35.84V35.83ZM15.43 46.58L16.39 39.35C16.43 38.95 16.59 38.55 16.84 38.3C16.9 38.24 17.14 38.17 17.34 38.1C17.58 38.04 17.84 37.96 18.08 37.85L18.51 37.65L18.83 46.58H15.4H15.43ZM38.83 46.58H21.06L20.7 36.68C20.7 36.68 20.73 36.68 20.74 36.68L22.61 35.68L23.03 42.96C23.06 43.54 23.53 44 24.13 44H35.89C36.49 44 36.96 43.54 36.99 42.96L37.39 35.69L39.19 36.62L38.84 46.57L38.83 46.58ZM41.03 46.58L41.35 37.63L41.93 37.86C43.25 38.4 43.53 38.8 43.61 39.36L44.59 46.58H41.04H41.03ZM30 12.1C27.86 12.1 25.87 12.76 24.38 13.97C22.66 15.37 21.75 17.37 21.75 19.75V19.81C21.31 19.95 20.92 20.17 20.63 20.46C20.18 20.9 19.93 21.5 19.95 22.13C19.95 22.33 20.01 22.55 20.09 22.7C20.21 23 20.49 23.56 22.39 24C22.39 24.04 22.39 24.07 22.39 24.1C22.41 30.05 25.75 34.7 29.99 34.7C34.24 34.7 37.57 30.04 37.59 24.1C37.59 24.07 37.59 24.04 37.59 24C39.49 23.57 39.76 23 39.89 22.74C39.99 22.56 40.03 22.37 40.03 22.14C40.05 21.49 39.81 20.89 39.37 20.44C39.07 20.14 38.67 19.94 38.24 19.81V19.76C38.24 14.73 34.08 12.1 29.98 12.1H30ZM30 32.5C27.14 32.5 24.7 28.8 24.6 24.34C25.86 24.48 27.47 24.56 29.54 24.58H30.47C32.54 24.56 34.14 24.48 35.39 24.35C35.29 28.79 32.85 32.49 29.99 32.49L30 32.5ZM30.46 22.38H29.56C26.3 22.36 24.18 22.11 23 21.88C23.23 21.84 23.44 21.74 23.6 21.58C23.83 21.38 23.95 21.08 23.95 20.78V19.75C23.95 18.05 24.58 16.65 25.77 15.68C26.27 15.28 26.87 14.94 27.53 14.7V18.14C27.53 18.74 28.03 19.24 28.63 19.24C29.23 19.24 29.73 18.74 29.73 18.14V14.3C29.91 14.28 30.09 14.28 30.26 14.3V18.14C30.26 18.74 30.76 19.24 31.36 19.24C31.96 19.24 32.46 18.74 32.46 18.14V14.71C34.46 15.44 36.06 17.08 36.06 19.76V20.79C36.06 21.09 36.16 21.39 36.39 21.59C36.54 21.75 36.76 21.85 36.99 21.89C35.81 22.12 33.69 22.36 30.45 22.39L30.46 22.38Z"/>
</svg>