<svg xmlns="http://www.w3.org/2000/svg" width="60" height="60" viewBox="0 0 60 60" fill="#AEB6BE">
  <path d="M43.7 19.73L39.4 15.73C39.38 15.7 39.35 15.66 39.3 15.63C39.24 15.53 39.15 15.47 39.06 15.43L38.26 14.67C38.06 14.47 37.78 14.37 37.5 14.37H35.08V12.27C35.08 11.67 34.58 11.17 33.98 11.17C33.38 11.17 32.88 11.67 32.88 12.27V14.37H27.12V12.27C27.12 11.67 26.62 11.17 26.02 11.17C25.42 11.17 24.92 11.67 24.92 12.27V14.37H22.5C22.22 14.37 21.95 14.47 21.74 14.67L16.3 19.73C15.95 20.05 15.85 20.56 16.05 20.99L22.52 35.19C22.7 35.59 23.09 35.84 23.52 35.84H28.9V36.68C28.9 37.08 28.9 37.08 27.95 37.66C27.45 37.96 26.75 38.39 25.89 39.02C24.69 39.89 23.99 41.39 23.99 43.14C23.99 44.67 24.63 46.1 25.79 47.17C26.91 48.21 28.39 48.79 29.99 48.79C31.57 48.79 33.07 48.21 34.19 47.16C35.34 46.08 35.99 44.64 35.99 43.12C35.99 42.52 35.49 42.02 34.89 42.02C34.27 42.02 33.79 42.52 33.79 43.12C33.79 44.02 33.39 44.89 32.69 45.54C31.26 46.88 28.72 46.88 27.29 45.54C26.59 44.89 26.19 44.04 26.19 43.12C26.19 42.09 26.55 41.22 27.19 40.78C27.97 40.2 28.59 39.83 29.09 39.52C30.26 38.8 31.12 38.29 31.09 36.62V35.82H36.46C36.89 35.82 37.28 35.56 37.46 35.17L42.16 24.84C42.18 24.82 42.19 24.8 42.19 24.79L43.94 21C44.14 20.56 44.04 20.05 43.7 19.73V19.73ZM18.38 20.8L22.93 16.57H25.45L19.15 22.47L18.38 20.8V20.8ZM20.1 24.58L28.68 16.58H31.08L20.8 26.13L20.1 24.57V24.58ZM22.5 29.82L21.77 28.25L34.3 16.57H36.68L22.48 29.82H22.5ZM23.45 31.92L38.5 17.9L39.7 19L24.16 33.5L23.46 31.93L23.45 31.92ZM35.77 33.65H32.83L37.91 28.93L35.78 33.65H35.77ZM40.27 23.73L29.6 33.65H27.2L41.3 20.5L41.62 20.8L40.28 23.73H40.27Z"/>
</svg>